<?xml version="1.0" encoding="UTF-8"?>
<svg id="Layer_1" data-name="Layer 1" xmlns="http://www.w3.org/2000/svg" viewBox="0 0 140.45 140.45">
  <defs>
    <style>
      .cls-1 {
        fill: #fff;
      }
    </style>
  </defs>
  <g>
    <path class="cls-1" d="M23.32,85.73c-2.72-.33-4.28-2.46-4.65-5.83-.61-5.51-.63-11.01,0-16.52,.39-3.49,1.92-5.55,4.74-5.94,6.95-.95,13.91-.95,20.85,0,2.63,.36,4.13,2.03,4.57,5.26,.82,6.02,.83,12.07-.04,18.09-.41,2.87-1.95,4.64-4.33,4.93-3.56,.42-17.67,.44-21.14,.02Zm16.33-7.05c1.45-.11,2.55-.98,2.6-2.92,.07-2.92,.03-5.86-.14-8.77-.08-1.44-.93-2.43-2.14-2.44-4.01-.06-8.02-.12-12.02,0-1.64,.05-2.51,1.26-2.6,3.37-.11,2.46-.11,4.93-.03,7.39,.07,2.16,.98,3.24,2.73,3.4,1.9,.18,9.64,.14,11.59,0Z"/>
    <path class="cls-1" d="M59.6,49.98c-2.72-.33-4.28-2.46-4.65-5.83-.61-5.51-.63-11.01,0-16.52,.39-3.49,1.92-5.55,4.74-5.94,6.95-.95,13.91-.95,20.85,0,2.63,.36,4.13,2.03,4.57,5.26,.82,6.02,.83,12.07-.04,18.09-.41,2.87-1.95,4.64-4.33,4.93-3.56,.42-17.67,.44-21.14,.02Zm16.33-7.05c1.45-.11,2.55-.98,2.6-2.92,.07-2.92,.03-5.86-.14-8.77-.08-1.44-.93-2.43-2.14-2.44-4.01-.06-8.02-.12-12.02,0-1.64,.05-2.51,1.26-2.6,3.37-.11,2.46-.11,4.93-.03,7.39,.07,2.16,.98,3.24,2.73,3.4,1.9,.18,9.64,.14,11.59,0Z"/>
    <path class="cls-1" d="M109.45,57.8c4.47,0,8.94,.03,13.41-.02,1.23-.02,1.67,.31,1.69,1.61,.06,5.12,.1,5.12-5.11,5.12-4.77,0-9.54,.05-14.31-.03-1.56-.03-2.15,.44-2.11,2.05,.1,3.99-.19,3.36,3.41,3.38,5.07,.03,10.15,.05,15.22-.02,1.44-.02,1.88,.45,1.88,1.87,0,4.65,.05,4.65-4.69,4.65-4.71,0-9.42,.03-14.13-.02-1.26-.02-1.72,.39-1.68,1.65,.07,2.16-.02,4.33,.03,6.49,.02,1.07-.36,1.53-1.46,1.51-1.99-.05-3.99-.04-5.98,0-.98,.02-1.4-.31-1.4-1.35,.03-8.48,.04-16.95,0-25.43,0-1.28,.57-1.48,1.65-1.47,4.53,.03,9.06,.01,13.59,.01Z"/>
    <path class="cls-1" d="M71.89,57.8c4.47,0,8.94,.03,13.41-.02,1.23-.02,1.67,.31,1.69,1.61,.06,5.12,.1,5.12-5.11,5.12-4.77,0-9.54,.05-14.31-.03-1.56-.03-2.15,.44-2.11,2.05,.1,3.99-.19,3.36,3.41,3.38,5.07,.03,10.15,.05,15.22-.02,1.44-.02,1.88,.45,1.88,1.87,0,4.65,.05,4.65-4.69,4.65-4.71,0-9.42,.03-14.13-.02-1.26-.02-1.72,.39-1.68,1.65,.07,2.16-.02,4.33,.03,6.49,.02,1.07-.36,1.53-1.46,1.51-1.99-.05-3.99-.04-5.98,0-.98,.02-1.4-.31-1.4-1.35,.03-8.48,.04-16.95,0-25.43,0-1.28,.57-1.48,1.65-1.47,4.53,.03,9.06,.01,13.59,.01Z"/>
    <path class="cls-1" d="M71.89,93.55c4.47,0,8.94,.03,13.41-.02,1.23-.02,1.67,.31,1.69,1.61,.06,5.12,.1,5.12-5.11,5.12-4.77,0-9.54,.05-14.31-.03-1.56-.03-2.15,.44-2.11,2.05,.1,3.99-.19,3.36,3.41,3.38,5.07,.03,10.15,.05,15.22-.02,1.44-.02,1.88,.45,1.88,1.87,0,4.65,.05,4.65-4.69,4.65-4.71,0-9.42,.03-14.13-.02-1.26-.02-1.72,.39-1.68,1.65,.07,2.16-.02,4.33,.03,6.49,.02,1.07-.36,1.53-1.46,1.51-1.99-.05-3.99-.04-5.98,0-.98,.02-1.4-.31-1.4-1.35,.03-8.48,.04-16.95,0-25.43,0-1.28,.57-1.48,1.65-1.47,4.53,.03,9.06,.01,13.59,.01Z"/>
  </g>
  <path class="cls-1" d="M70.22,140.45C31.5,140.45,0,108.95,0,70.22S31.5,0,70.22,0s70.22,31.5,70.22,70.22-31.5,70.22-70.22,70.22Zm0-133.78C35.18,6.67,6.67,35.18,6.67,70.22s28.51,63.55,63.55,63.55,63.55-28.51,63.55-63.55S105.27,6.67,70.22,6.67Z"/>
</svg>