<?xml version="1.0" encoding="UTF-8"?>
<svg id="Layer_2" data-name="Layer 2" xmlns="http://www.w3.org/2000/svg" viewBox="0 0 551.91 84.21">
  <g id="Layer_1-2" data-name="Layer 1">
    <g>
      <path d="M161.36,41.21c8.78,4.65,11.91,17.09,6.09,25.49-1.36,1.96-3.8,3.72-6.09,4.36-3.57,.99-7.43,1.26-11.18,1.29-17.7,.13-35.41,0-53.11,.16-3.39,.03-4.78-.66-4.74-4.45,.2-17.36,.17-34.73,.02-52.09-.03-3.34,.82-4.49,4.34-4.45,17.96,.19,35.93,.1,53.9,.17,2.46,0,4.98,.07,7.37,.6,5.83,1.29,8.83,4.91,9.42,10.86,.05,.52,.11,1.03,.11,1.55,.08,10.23,.29,10.52-6.12,16.5Zm-51,6.45c0,2.25,.16,4.06-.04,5.83-.36,3.19,.81,4.31,4.11,4.2,6.89-.23,13.8-.04,20.7-.08,4.03-.02,8.07-.07,12.1-.25,3-.13,4.46-2.02,4.48-4.85,.02-2.82-1.34-4.82-4.41-4.84-12.09-.06-24.18-.02-36.94-.02Zm.43-12.6c11.58,0,22.98,.06,34.38-.05,2.79-.03,4.11-1.88,4.11-4.64,0-3.68-2.67-4.09-5.35-4.13-8.7-.14-17.39-.15-26.09-.17q-8.35-.02-7.05,8.99Z"/>
      <path d="M440.52,72.43c-10.5,0-20.64,.09-30.78-.12-1.19-.02-2.63-1.48-3.46-2.62-9.36-12.92-18.61-25.91-27.92-38.87-.94-1.31-2.08-2.49-4.08-3.46v45.06c-6.16,0-11.73,.09-17.29-.11-.73-.03-2.02-1.59-2.02-2.44-.12-18.54-.07-37.07-.12-55.61,0-2.1,.94-2.68,2.84-2.67,9.38,.04,18.76-.13,28.12,.16,1.51,.05,3.36,1.73,4.38,3.14,9.28,12.81,18.4,25.74,27.6,38.61,.85,1.19,1.89,2.25,3.77,3.04V11.94h18.95v60.49Z"/>
      <path d="M177.34,72.38V12.04c1.13-.15,2.22-.42,3.32-.42,19.4,0,38.8,0,58.2,.07,6.36,.02,12.46,2.06,13.67,8.6,1.29,6.96,.96,14.39,.16,21.49-.3,2.67-3.9,4.98-6.1,7.59,10.56,4.78,5.67,14.46,7.05,23.06-5.88,0-11.18,.1-16.46-.11-.76-.03-1.91-1.49-2.09-2.43-.45-2.4-.4-4.89-.63-7.34-.32-3.45-2.52-5.12-5.74-5.17-10.02-.14-20.05-.17-30.07,0-.86,.02-2.3,1.78-2.42,2.85-.34,3.07,.02,6.22-.23,9.31-.08,.99-1.15,2.68-1.82,2.71-5.55,.22-11.11,.12-16.84,.12Zm36.6-30.47v-.09c4.69,0,9.38,.08,14.06-.02,5.73-.13,7.33-1.88,7.29-7.64-.04-5.41-1.69-7.11-7.34-7.16-9.38-.09-18.75,.01-28.13-.12-2.62-.04-3.89,.7-3.74,3.48,.14,2.71,.11,5.45,0,8.16-.1,2.46,.81,3.5,3.4,3.42,4.81-.15,9.64-.04,14.45-.04Z"/>
      <path d="M350.97,72.38c-6.81,0-13.26,.12-19.69-.14-.95-.04-2.29-1.75-2.66-2.94-1.82-5.82-5.63-7.25-11.51-6.92-9.6,.53-19.25,.25-28.88,.08-3.02-.06-5.05,.72-5.95,3.68-1.61,5.27-5.09,7.05-10.57,6.42-4.44-.51-8.99-.1-14.23-.1,5.04-9.45,9.64-18.09,14.26-26.72,5.5-10.27,11.11-20.48,16.49-30.81,1.32-2.53,2.9-3.47,5.77-3.39,7.41,.2,14.84-.06,22.25,.18,1.46,.05,3.54,1.16,4.2,2.38,9.99,18.43,19.8,36.96,29.62,55.48,.34,.65,.46,1.41,.89,2.8Zm-59.98-23.68h27.23c-3.97-7.58-7.45-14.74-11.45-21.6-1.24-2.13-3.68-1.74-4.96,.7-3.53,6.73-6.99,13.49-10.82,20.89Z"/>
      <g>
        <path d="M13.98,51.4c-1.63-.2-2.57-1.47-2.79-3.5-.36-3.3-.38-6.6,0-9.91,.24-2.09,1.15-3.33,2.84-3.56,4.16-.57,8.34-.57,12.5,0,1.58,.21,2.48,1.22,2.74,3.15,.49,3.61,.5,7.24-.02,10.84-.25,1.72-1.17,2.78-2.6,2.95-2.13,.25-10.6,.26-12.67,.01Zm9.79-4.23c.87-.07,1.53-.59,1.56-1.75,.04-1.75,.02-3.51-.08-5.26-.05-.86-.56-1.45-1.28-1.47-2.4-.04-4.81-.07-7.21,0-.98,.03-1.5,.75-1.56,2.02-.06,1.47-.07,2.95-.02,4.43,.04,1.29,.59,1.94,1.64,2.04,1.14,.11,5.78,.09,6.95,0Z"/>
        <path d="M35.73,29.97c-1.63-.2-2.57-1.47-2.79-3.5-.36-3.3-.38-6.6,0-9.91,.24-2.09,1.15-3.33,2.84-3.56,4.16-.57,8.34-.57,12.5,0,1.58,.21,2.48,1.22,2.74,3.15,.49,3.61,.5,7.24-.02,10.84-.25,1.72-1.17,2.78-2.6,2.95-2.13,.25-10.6,.26-12.67,.01Zm9.79-4.23c.87-.07,1.53-.59,1.56-1.75,.04-1.75,.02-3.51-.08-5.26-.05-.86-.56-1.45-1.28-1.47-2.4-.04-4.81-.07-7.21,0-.98,.03-1.5,.75-1.56,2.02-.06,1.47-.07,2.95-.02,4.43,.04,1.29,.59,1.94,1.64,2.04,1.14,.11,5.78,.09,6.95,0Z"/>
        <path d="M65.62,34.65c2.68,0,5.36,.02,8.04-.01,.73,0,1,.19,1.01,.97,.04,3.07,.06,3.07-3.06,3.07-2.86,0-5.72,.03-8.58-.02-.93-.02-1.29,.26-1.26,1.23,.06,2.39-.11,2.01,2.05,2.03,3.04,.02,6.08,.03,9.12-.01,.86-.01,1.13,.27,1.13,1.12,0,2.79,.03,2.79-2.81,2.79-2.82,0-5.65,.02-8.47-.01-.75,0-1.03,.24-1.01,.99,.04,1.3-.01,2.6,.02,3.89,.01,.64-.21,.92-.88,.9-1.19-.03-2.39-.02-3.58,0-.59,.01-.84-.18-.84-.81,.02-5.08,.02-10.16,0-15.25,0-.77,.34-.89,.99-.88,2.72,.02,5.43,0,8.15,0Z"/>
        <path d="M43.1,34.65c2.68,0,5.36,.02,8.04-.01,.73,0,1,.19,1.01,.97,.04,3.07,.06,3.07-3.06,3.07-2.86,0-5.72,.03-8.58-.02-.93-.02-1.29,.26-1.26,1.23,.06,2.39-.11,2.01,2.05,2.03,3.04,.02,6.08,.03,9.12-.01,.86-.01,1.13,.27,1.13,1.12,0,2.79,.03,2.79-2.81,2.79-2.82,0-5.65,.02-8.47-.01-.75,0-1.03,.24-1.01,.99,.04,1.3-.01,2.6,.02,3.89,.01,.64-.21,.92-.88,.9-1.19-.03-2.39-.02-3.58,0-.59,.01-.84-.18-.84-.81,.02-5.08,.02-10.16,0-15.25,0-.77,.34-.89,.99-.88,2.72,.02,5.43,0,8.15,0Z"/>
        <path d="M43.1,56.09c2.68,0,5.36,.02,8.04-.01,.73,0,1,.19,1.01,.97,.04,3.07,.06,3.07-3.06,3.07-2.86,0-5.72,.03-8.58-.02-.93-.02-1.29,.26-1.26,1.23,.06,2.39-.11,2.01,2.05,2.03,3.04,.02,6.08,.03,9.12-.01,.86-.01,1.13,.27,1.13,1.12,0,2.79,.03,2.79-2.81,2.79-2.82,0-5.65,.02-8.47-.01-.75,0-1.03,.24-1.01,.99,.04,1.3-.01,2.6,.02,3.89,.01,.64-.21,.92-.88,.9-1.19-.03-2.39-.02-3.58,0-.59,.01-.84-.18-.84-.81,.02-5.08,.02-10.16,0-15.25,0-.77,.34-.89,.99-.88,2.72,.02,5.43,0,8.15,0Z"/>
      </g>
      <path d="M42.1,84.21C18.89,84.21,0,65.32,0,42.1S18.89,0,42.1,0s42.1,18.89,42.1,42.1-18.89,42.1-42.1,42.1Zm0-80.21C21.09,4,4,21.09,4,42.1s17.09,38.1,38.1,38.1,38.1-17.09,38.1-38.1S63.11,4,42.1,4Z"/>
      <path d="M509.81,84.21H42.1C18.89,84.21,0,65.32,0,42.1S18.89,0,42.1,0H509.81c23.22,0,42.1,18.89,42.1,42.1s-18.89,42.1-42.1,42.1ZM42.1,4C21.09,4,4,21.09,4,42.1s17.09,38.1,38.1,38.1H509.81c21.01,0,38.1-17.09,38.1-38.1s-17.09-38.1-38.1-38.1H42.1Z"/>
      <path d="M527.88,20.48c-1.83-3.1-4.72-4.96-8.63-6.43-3.5-1.32-8.62-2.23-12.36-2.32-8.45-.21-16.91-.07-25.37-.07v-.05c-9.5,0-19,.1-28.49-.06-2.94-.05-3.76,.93-3.74,3.8,.12,17.74,.13,35.48-.01,53.22-.02,3.12,.97,3.96,4,3.94,16.65-.14,33.31-.01,49.96-.16,4.4-.04,8.82-.57,13.18-1.19,5.38-.77,9.72-3.88,11.9-8.46,3.64-6.04,5.73-13.11,5.73-20.68s-2.38-16.04-6.17-21.53Zm-18.56,34.34s-.08,.05-.12,.08c-.28,.19-.58,.35-.88,.49-.05,.02-.09,.05-.14,.07-.02,0-.04,.02-.06,.03h0c-.74,.29-1.57,.47-2.51,.52-9.72,.45-19.45,.76-29.18,.87-9.39,.1-8.48,1.16-8.51-8.51-.02-5.95,.07-11.9-.03-17.85-.04-2.66,.98-3.69,3.69-3.62,5.19,.14,25.73,0,30.79,.22,2.31,.1,4.09,.42,5.47,1.04h0s.08,.03,.12,.06c.65,.31,1.21,.69,1.69,1.16,3.31,2.95,4.4,8.59,4.4,13.25,0,4.29-1.54,9.97-4.7,12.21Z"/>
    </g>
  </g>
</svg>