<?xml version="1.0" encoding="UTF-8"?>
<svg id="Layer_2" data-name="Layer 2" xmlns="http://www.w3.org/2000/svg" viewBox="0 0 1565.18 1392.68">
  <defs>
    <style>
      .cls-1 {
        fill: #fff;
      }

      .cls-2 {
        fill: none;
        stroke: #fff;
        stroke-miterlimit: 10;
        stroke-width: 5px;
      }
    </style>
  </defs>
  <g id="Layer_1-2" data-name="Layer 1">
    <g>
      <path class="cls-1" d="M304.22,200.36c2.37-6.23,4.6-12.12,6.85-18.02,5.57-14.65,11.17-29.29,16.69-43.96,.57-1.51,1.29-2.08,2.94-2.04,4.83,.12,9.67,.06,14.51,.03,1.05,0,1.69,.24,2.1,1.32,7.72,20.53,15.48,41.04,23.23,61.55,.11,.28,.16,.58,.31,1.11-5.07,0-10,.03-14.93-.06-.37,0-.88-.75-1.06-1.25-1.43-4.02-2.83-8.06-4.15-12.12-.37-1.13-.91-1.52-2.11-1.51-7.44,.06-14.88,.06-22.32,0-1.2,0-1.7,.39-2.08,1.52-1.34,3.99-2.85,7.92-4.2,11.91-.37,1.11-.85,1.56-2.07,1.54-4.46-.08-8.91-.03-13.7-.03Zm41.97-26.73c-3.4-9.55-7.26-18.75-6.18-28.95h-4.26c-.69,5.09-.98,10.06-2.11,14.84-1.13,4.76-3.1,9.33-4.75,14.11h17.29Z"/>
      <g>
        <path class="cls-1" d="M181.07,66.93c-10.41,0-18.6-2.22-25.45-8.3-5.11-4.53-8.03-10.32-9.34-16.94-1.54-7.78-1.1-15.42,2.15-22.74,4.57-10.27,12.59-16.21,23.53-18.18,8.24-1.48,16.34-.95,23.98,2.77,9.61,4.69,15.18,12.53,17.09,22.93,1.45,7.85,.74,15.55-2.66,22.87-3.5,7.56-9.36,12.52-17.1,15.34-4.4,1.61-8.97,2.34-12.22,2.23Zm17.95-34.49c-.28-1.58-.52-4.32-1.28-6.9-2.11-7.2-6.76-12.01-14.26-13.29-7.86-1.35-14.79,.67-19.38,7.59-4.32,6.52-4.82,13.78-2.8,21.25,4.34,16.1,22.25,16.79,30.24,10.09,5.48-4.6,7.18-10.77,7.49-18.73Z"/>
        <path class="cls-1" d="M102.56,66.93c-10.47-.02-18.61-2.22-25.42-8.22-5.12-4.51-8.06-10.28-9.4-16.91-1.53-7.52-1.18-14.94,1.78-22.06,4.68-11.24,13.35-17.46,25.22-19.21,7.81-1.15,15.49-.52,22.7,3.04,9.58,4.73,15.14,12.57,17.04,22.98,1.43,7.86,.72,15.55-2.7,22.87-3.52,7.55-9.38,12.5-17.13,15.3-4.41,1.59-8.97,2.32-12.09,2.22Zm17.89-34.5c-.28-1.58-.52-4.32-1.28-6.9-2.11-7.2-6.76-12.01-14.26-13.3-7.86-1.35-14.8,.66-19.38,7.59-4.32,6.52-4.81,13.78-2.8,21.25,4.34,16.08,22.24,16.8,30.24,10.09,5.48-4.6,7.18-10.77,7.49-18.73Z"/>
        <path class="cls-1" d="M259.28,28.64c9.21,12.7,18.34,25.3,27.61,38.08-.55,.09-.93,.2-1.31,.2-5.02,.01-10.05,.06-15.07-.05-.75-.02-1.74-.58-2.18-1.21-5.81-8.2-11.53-16.46-17.28-24.7-.45-.65-.91-1.3-1.15-1.63-2.56,2.35-5.08,4.61-7.51,6.97-.35,.34-.31,1.16-.31,1.76-.02,5.53-.01,11.05-.01,16.58,0,.67,0,1.34,0,2.15h-14.2v-2.06c0-19.81,.03-39.61-.04-59.42,0-1.86,.44-2.5,2.37-2.41,3.34,.16,6.7,.09,10.04,.02,1.32-.03,1.91,.3,1.85,1.76-.18,4.21-.19,8.43-.36,12.64-.14,3.39-1.6,6.32-3.5,9.06-.49,.71-1.01,1.39-1.52,2.09,1.03,1.01,1.98,1.95,3.11,3.07,2.37-2.68,4.77-5.4,7.16-8.13,5.57-6.34,11.16-12.66,16.69-19.03,.89-1.02,1.79-1.5,3.18-1.47,4.9,.08,9.8,.03,14.7,.04,.6,0,1.21,.05,2.43,.11-8.44,8.74-16.53,17.13-24.69,25.58Z"/>
        <path class="cls-1" d="M57.83,14.94h-21.85v52h-14.19V14.96H0C0,11.19-.02,7.62,.04,4.04c0-.32,.52-.78,.89-.89,.51-.16,1.1-.06,1.66-.06,17.55,0,35.11,0,52.66,0q2.57,0,2.57,2.66c0,2.96,0,5.93,0,9.19Z"/>
      </g>
      <g>
        <path class="cls-1" d="M408.6,448.53v4.07c2.33,.25,4.61,.42,6.86,.76,6.1,.91,9.37,3.97,10.8,10,.17,.73,.34,1.46,.46,2.19,.82,4.84,1.64,9.67,2.48,14.67h-15.12c-.5-3.66-.97-7.4-1.52-11.13-.31-2.09-.6-4.2-1.15-6.23-1.05-3.86-3.83-6.07-7.68-6.31-4.88-.3-9.78-.07-14.99-.07,0,3.77,0,7.78,0,11.8s0,7.93,0,11.99h-14.26v-2.21c0-19.8,0-39.59,0-59.39q0-2.44,2.44-2.45c9.58,0,19.15-.04,28.73,.02,5.13,.03,10.18,.57,14.73,3.31,7.82,4.72,10.37,15.96,5.09,22.72-2.07,2.66-4.89,4.22-8.16,4.87-2.84,.56-5.73,.91-8.73,1.37Zm-19.76-4.07c5.67,0,11.13,.12,16.59-.04,4.64-.14,7.69-3.23,7.86-7.58,.19-4.75-2.41-8.05-7.32-8.39-5.57-.39-11.17-.24-16.76-.32-.1,0-.2,.13-.37,.25v16.07Z"/>
        <path class="cls-1" d="M340.32,428.13v52.15h-14.16v-52.09h-21.93c0-3.78-.03-7.31,.05-10.83,0-.35,.59-.81,1.01-1.01,.36-.17,.85-.05,1.29-.05,17.78,0,35.57,.03,53.35-.05,1.94,0,2.45,.56,2.36,2.43-.15,3.09-.04,6.18-.04,9.45h-21.93Z"/>
      </g>
      <g>
        <path class="cls-1" d="M1527.41,1370.38v22.3h-14.05v-63.9c.62-.04,1.23-.12,1.83-.12,8.89,0,17.79-.03,26.68,0,5.58,.02,10.9,1.09,15.46,4.55,6.55,4.97,8.67,11.79,7.56,19.66-1.21,8.5-6.29,13.93-14.41,16.28-3.1,.9-6.47,1.03-9.72,1.17-4.34,.19-8.69,.05-13.35,.05Zm.06-11.9c4.69,0,9.23,.13,13.75-.05,3.01-.12,5.71-1.28,7.58-3.82,4-5.45,.59-12.95-6.49-13.7-4.8-.51-9.67-.27-14.51-.35-.09,0-.19,.15-.32,.27v17.64Z"/>
        <path class="cls-1" d="M1480.24,1328.82c.57-.05,1.12-.13,1.66-.13,3.54-.01,7.09,.05,10.63-.03,1.38-.03,1.83,.41,1.81,1.81-.08,4.35-.03,8.71-.03,13.07,0,15.62,0,31.23,0,46.85v2.3h-14.07v-63.86Z"/>
      </g>
      <g>
        <path class="cls-2" d="M484.93,457.66c330.77-44.03,1077.29-79.11,990.06,176.18-77.93,228.06-943.21,92.36-844.79,445.01,41.45,148.54,498.13,129.8,771.18,268.55"/>
        <polygon class="cls-1" points="1377.44 1358.54 1376 1353.75 1399.6 1346.64 1390.79 1323.62 1395.46 1321.83 1406.19 1349.88 1377.44 1358.54"/>
      </g>
    </g>
  </g>
</svg>